<svg width="163" height="163" viewBox="0 0 163 163" fill="none" xmlns="http://www.w3.org/2000/svg">
<path d="M59.8882 29.3257C66.7439 26.4651 74.0966 24.9851 81.5251 24.9705C88.9536 24.956 96.312 26.4072 103.179 29.241C110.046 32.0748 116.286 36.2355 121.542 41.4849C126.798 46.7342 130.967 52.9689 133.81 59.832C136.653 66.695 138.114 74.0515 138.109 81.4801C138.104 88.9086 136.634 96.2632 133.782 103.123C130.931 109.982 126.754 116.211 121.491 121.454C116.228 126.697 109.982 130.849 103.112 133.674C89.2829 139.36 73.7635 139.33 59.9568 133.59C46.1501 127.851 35.1833 116.87 29.4612 103.056C23.7391 89.2416 23.7289 73.7222 29.4328 59.9006C35.1367 46.0791 46.0891 35.0837 59.8882 29.3257Z" fill="#2F80ED"/>
<path fill-rule="evenodd" clip-rule="evenodd" d="M37.5409 47.8609C38.3378 47.9447 39.1433 47.8522 39.9003 47.5899C40.6574 47.3276 41.3475 46.9018 41.9216 46.3429L43.4701 44.8352C44.4224 43.9078 45.5491 43.1782 46.785 42.6886C48.0209 42.199 49.3415 41.9591 50.6706 41.9827H50.7358L55.7175 47.7672L59.5419 47.4167L61.5447 47.2333C62.7207 47.1256 63.8213 46.6077 64.6539 45.7704C65.526 44.8943 66.6915 44.3706 67.9241 44.2953L71.0741 44.1078L74.4299 47.9098C75.1495 48.7248 75.6146 49.7327 75.7677 50.8091C75.9208 51.8855 75.7552 52.9832 75.2914 53.9665C74.8276 54.9498 74.0858 55.7758 73.1578 56.3422C72.2298 56.9087 71.1562 57.1909 70.0696 57.1539L65.363 56.995C65.053 56.9832 64.7459 57.058 64.476 57.211C64.2061 57.3639 63.9841 57.589 63.8349 57.8609C63.6444 58.2107 63.3353 58.4809 62.9632 58.6228C62.5911 58.7648 62.1805 58.7692 61.8055 58.6352L54.0956 55.8886C53.7213 55.7553 53.3915 55.5204 53.1432 55.2102C52.8949 54.9 52.7379 54.5267 52.6897 54.1323C52.6249 53.602 52.3639 53.1151 51.9582 52.7674C51.5525 52.4198 51.0314 52.2365 50.4974 52.2537L43.0972 52.5043C42.8703 52.5111 42.6449 52.4651 42.4388 52.37C42.2327 52.2749 42.0514 52.1333 41.9093 51.9563C41.7717 51.7845 41.597 51.6461 41.3982 51.5514C41.1995 51.4568 40.9819 51.4083 40.7618 51.4097C40.5417 51.4111 40.3248 51.4622 40.1272 51.5594C39.9297 51.6565 39.7567 51.797 39.6212 51.9705L35.424 57.3536C34.6378 58.3613 34.1494 59.5689 34.014 60.8398L33.3478 67.1193C33.0912 69.531 33.376 71.9695 34.1814 74.2571C34.9868 76.5447 36.2926 78.6238 38.0034 80.3427L40.5218 82.8712C42.1756 84.5311 44.4136 85.4775 46.7565 85.5078C49.0831 85.5355 51.3073 86.4687 52.9572 88.1094C54.607 89.7501 55.5525 91.9691 55.5932 94.2955L55.6604 98.0853C55.6789 99.135 55.9303 100.168 56.3965 101.108C56.8627 102.049 57.532 102.875 58.356 103.525C59.1671 104.166 59.8283 104.977 60.2932 105.9C60.7581 106.823 61.0156 107.837 61.0476 108.87L61.3124 117.242C61.3699 119.151 62.1579 120.966 63.514 122.311C64.8701 123.657 66.6908 124.43 68.6006 124.473C69.6354 124.496 70.6636 124.302 71.6193 123.904C72.575 123.507 73.4372 122.914 74.1507 122.164L76.826 119.357C79.6874 116.352 81.2898 112.365 81.3044 108.216L81.3411 96.9728C81.351 93.6789 82.643 90.5182 84.9434 88.1606L87.1785 85.8704C88.4539 84.5647 89.1696 82.8129 89.1734 80.9876C89.1772 79.1624 88.4688 77.4076 87.1989 76.0966L76.7058 65.2509C76.5389 65.0885 76.4065 64.8942 76.3163 64.6795C76.2261 64.4649 76.18 64.2343 76.1807 64.0014C76.1815 63.7686 76.2291 63.5383 76.3207 63.3242C76.4123 63.1101 76.546 62.9167 76.7139 62.7553C76.8818 62.594 77.0804 62.4681 77.2979 62.3851C77.5155 62.3021 77.7475 62.2637 77.9802 62.2723C78.2129 62.2808 78.4415 62.336 78.6524 62.4347C78.8633 62.5334 79.0522 62.6735 79.2078 62.8467L84.6561 68.568C86.2131 70.2054 88.346 71.1728 90.6035 71.2656L92.2661 71.3349C93.2556 71.3756 94.2343 71.117 95.0744 70.5927C95.9145 70.0685 96.577 69.3031 96.9753 68.3964C97.3736 67.4898 97.4892 66.4841 97.307 65.5107C97.1248 64.5374 96.6533 63.6416 95.954 62.9404L90.3142 57.2843C90.0592 57.0303 89.9154 56.6854 89.9147 56.3255C89.9139 55.9656 90.0562 55.62 90.3102 55.365C90.5641 55.1099 90.909 54.9662 91.269 54.9654C91.6289 54.9647 91.9744 55.1069 92.2295 55.3609L94.7763 57.8772C95.5424 58.6311 96.5693 59.059 97.6451 59.0651L99.8803 59.0773C101.511 59.0865 103.113 59.5113 104.535 60.3117C105.956 61.112 107.15 62.2615 108.004 63.6515L113.407 72.4413C113.552 72.6769 113.762 72.8654 114.011 72.984C114.261 73.1025 114.54 73.146 114.813 73.1091C115.087 73.0722 115.345 72.9565 115.554 72.7761C115.763 72.5956 115.916 72.3583 115.993 72.0929L117.305 67.5676C117.527 66.8056 117.88 66.0884 118.35 65.4486L119.446 63.9592C122.331 60.0329 128.261 60.2448 130.86 64.3626L131.859 65.9437C132.324 66.6811 132.998 67.2631 133.795 67.6152C134.593 67.9672 135.477 68.0734 136.335 67.9201C134.21 59.3323 130.098 51.3638 124.329 44.6566C118.561 37.9494 111.297 32.6911 103.124 29.3054C91.5158 24.4987 78.6364 23.6998 66.5232 27.035C54.41 30.3702 43.7548 37.6492 36.243 47.7203L37.5409 47.8609ZM137.454 73.7575C137.902 77.0216 138.067 80.3183 137.943 83.6068L135.276 79.4156C134.959 78.9182 134.763 78.3532 134.704 77.7662C134.645 77.1792 134.725 76.5865 134.936 76.0359C135.148 75.4853 135.486 74.9921 135.924 74.5961C136.361 74.2 136.885 73.9141 137.454 73.7575ZM71.0741 44.1058L72.3292 41.3939C72.9251 40.1069 73.8538 39.0023 75.0194 38.1943C76.1849 37.3862 77.545 36.9039 78.9592 36.7972L80.5811 36.675C81.4671 36.6081 82.3553 36.7732 83.1581 37.1541C83.961 37.5349 84.6507 38.1184 85.1594 38.847L86.0783 40.1652C86.5012 40.7727 86.7052 41.5059 86.6568 42.2445C86.6085 42.9831 86.3107 43.6834 85.8123 44.2306C85.3138 44.7778 84.6443 45.1395 83.9134 45.2564C83.1825 45.3733 82.4335 45.2384 81.7893 44.8739L80.4711 44.1261C79.5074 43.5768 78.3957 43.3437 77.2926 43.4599L71.0741 44.1058ZM89.7885 109.061C88.2401 109.061 87.0074 107.761 87.095 106.215L87.2193 103.943C87.2743 102.977 87.6166 102.048 88.2013 101.278L89.0632 100.145C89.3615 99.751 89.7775 99.4621 90.251 99.3202C90.7245 99.1784 91.2308 99.191 91.6967 99.3563C92.1625 99.5216 92.5636 99.8309 92.8418 100.239C93.1201 100.648 93.261 101.134 93.2441 101.628L93.1382 104.958C93.1158 105.661 92.9181 106.343 92.5677 106.952L92.1195 107.719C91.8833 108.128 91.5435 108.467 91.1343 108.703C90.7251 108.939 90.2609 109.062 89.7885 109.061Z" fill="#6FCF97"/>
</svg>
